# xmcd
#
# Track frame offsets:
#	150
#	26550
#	45475
#	69488
#	91875
#	120468
#	145400
#	164233
#
# Disc length: 2559
#
# Revision: 1
# Processed by: cddbd v1.5.1PL0 Copyright (c) Steve Scherf et al.
# Submitted via: CDex 1.50beta10
# Normalized: r0:TRMNUM
#
DISCID=6b09fd08
DTITLE=Ahmad Jamal - Milan
DYEAR=1900
DGENRE=Jazz
TTITLE0=Milan
TTITLE1=If I Find The Way
TTITLE2=Without You
TTITLE3=Acorn
TTITLE4=Yellow Fellow
TTITLE5=Autumn Rain
TTITLE6=Winter Snow
TTITLE7=Rossiter Road
EXTD=
EXTT0=
EXTT1=
EXTT2=
EXTT3=
EXTT4=
EXTT5=
EXTT6=
EXTT7=
PLAYORDER=
